<svg width="177.65" height="31.508" viewBox="0 0 177.65 31.508" xmlns="http://www.w3.org/2000/svg"><g id="svgGroup" stroke-linecap="round" fill-rule="evenodd" font-size="9pt" stroke="#fff7f7" stroke-width="0.25mm" fill="#ad0d0d" style="stroke:#fff7f7;stroke-width:0.25mm;fill:#ad0d0d"><path d="M 0 16.942 L 3.42 16.942 Q 3.515 18.398 4.275 19.744 A 5.72 5.72 0 0 0 6.022 21.637 A 7.025 7.025 0 0 0 6.507 21.945 A 5.962 5.962 0 0 0 8.166 22.586 Q 8.908 22.758 9.771 22.792 A 10.944 10.944 0 0 0 10.197 22.8 A 8.833 8.833 0 0 0 11.664 22.686 Q 13.05 22.452 13.965 21.739 A 3.406 3.406 0 0 0 15.309 19.248 A 4.622 4.622 0 0 0 15.327 18.842 A 4.085 4.085 0 0 0 15.157 17.632 A 3.112 3.112 0 0 0 14.012 16.023 A 9.624 9.624 0 0 0 12.58 15.147 Q 11.851 14.78 10.989 14.475 A 16.673 16.673 0 0 0 10.703 14.377 L 8.328 13.585 Q 6.523 12.983 4.877 12.176 A 7.966 7.966 0 0 1 2.936 10.855 A 7.182 7.182 0 0 1 2.185 10.038 Q 1.195 8.779 1.143 6.78 A 8.61 8.61 0 0 1 1.14 6.555 A 7.174 7.174 0 0 1 1.334 4.848 A 5.459 5.459 0 0 1 2.153 3.008 A 6.222 6.222 0 0 1 4.323 1.091 A 7.728 7.728 0 0 1 4.972 0.776 A 9.322 9.322 0 0 1 7.249 0.138 A 12.552 12.552 0 0 1 9.152 0 Q 11.455 0 13.11 0.657 A 6.962 6.962 0 0 1 13.902 1.029 Q 15.77 2.058 16.72 3.737 A 8.489 8.489 0 0 1 17.796 7.426 A 9.88 9.88 0 0 1 17.797 7.442 L 14.377 7.442 Q 14.282 6.27 13.728 5.225 A 4.162 4.162 0 0 0 12.472 3.801 A 5.213 5.213 0 0 0 12.033 3.515 Q 11.134 2.99 9.781 2.88 A 9.277 9.277 0 0 0 9.025 2.85 Q 7.45 2.85 6.363 3.395 A 3.964 3.964 0 0 0 5.779 3.753 Q 4.56 4.655 4.56 6.238 A 3.542 3.542 0 0 0 4.767 7.476 Q 5.092 8.354 5.929 8.934 A 3.897 3.897 0 0 0 5.969 8.962 A 11.68 11.68 0 0 0 7.676 9.906 A 15.686 15.686 0 0 0 9.342 10.545 L 11.748 11.337 A 21.688 21.688 0 0 1 15.152 12.73 A 7.607 7.607 0 0 1 17.131 14.174 A 7.01 7.01 0 0 1 17.749 14.899 Q 18.624 16.08 18.732 17.954 A 9.414 9.414 0 0 1 18.747 18.493 Q 18.747 21.913 16.372 23.782 A 8.266 8.266 0 0 1 13.351 25.253 Q 12.154 25.573 10.738 25.635 A 15.895 15.895 0 0 1 10.038 25.65 Q 7.672 25.65 5.872 25.007 A 9.136 9.136 0 0 1 5.811 24.985 A 9.469 9.469 0 0 1 3.873 24.026 A 7.979 7.979 0 0 1 2.739 23.133 Q 1.488 21.945 0.808 20.362 Q 0.127 18.778 0 16.942 Z M 162.893 19.095 L 166.25 19.095 A 4.63 4.63 0 0 0 166.717 20.693 A 5.431 5.431 0 0 0 166.852 20.948 Q 167.358 21.85 168.34 22.42 Q 169.322 22.99 170.842 22.99 A 6.361 6.361 0 0 0 171.839 22.917 Q 172.357 22.835 172.776 22.659 A 2.899 2.899 0 0 0 173.438 22.278 Q 174.338 21.579 174.356 20.44 A 2.957 2.957 0 0 0 174.357 20.393 A 2.348 2.348 0 0 0 173.666 18.69 A 2.817 2.817 0 0 0 173.644 18.668 A 3.859 3.859 0 0 0 173.016 18.168 Q 172.681 17.95 172.258 17.752 A 9.664 9.664 0 0 0 171.443 17.417 L 169.195 16.625 A 22.171 22.171 0 0 1 167.58 15.949 A 17.679 17.679 0 0 1 166.456 15.374 A 6.215 6.215 0 0 1 165.181 14.443 A 5.367 5.367 0 0 1 164.508 13.664 A 3.821 3.821 0 0 1 163.91 12.289 Q 163.788 11.755 163.781 11.135 A 6.789 6.789 0 0 1 163.78 11.052 A 5.518 5.518 0 0 1 164.067 9.233 A 4.666 4.666 0 0 1 165.522 7.157 A 5.877 5.877 0 0 1 167.72 6.026 Q 168.58 5.782 169.603 5.72 A 11.768 11.768 0 0 1 170.303 5.7 Q 172.062 5.7 173.338 6.192 A 5.53 5.53 0 0 1 173.929 6.46 Q 175.37 7.22 176.13 8.534 A 6.737 6.737 0 0 1 176.962 10.989 A 7.988 7.988 0 0 1 177.017 11.495 L 173.787 11.495 A 3.914 3.914 0 0 0 172.837 9.326 Q 172.186 8.562 170.882 8.403 A 6.061 6.061 0 0 0 170.145 8.36 Q 169.144 8.36 168.459 8.654 A 2.449 2.449 0 0 0 167.865 9.009 A 2.112 2.112 0 0 0 167.081 10.559 A 2.928 2.928 0 0 0 167.073 10.767 Q 167.073 11.843 167.833 12.54 A 4.511 4.511 0 0 0 168.478 13.025 Q 168.809 13.233 169.218 13.429 A 11.167 11.167 0 0 0 170.113 13.807 L 172.362 14.567 A 21.427 21.427 0 0 1 173.971 15.243 A 16.83 16.83 0 0 1 175.085 15.818 Q 176.288 16.498 176.969 17.512 A 3.806 3.806 0 0 1 177.5 18.749 Q 177.622 19.251 177.645 19.835 A 7.025 7.025 0 0 1 177.65 20.108 A 5.451 5.451 0 0 1 177.26 22.2 A 5.069 5.069 0 0 1 175.877 24.098 A 5.73 5.73 0 0 1 173.827 25.225 Q 172.969 25.501 171.928 25.598 A 12.751 12.751 0 0 1 170.747 25.65 Q 168.635 25.65 167.116 25.047 A 6.401 6.401 0 0 1 166.408 24.716 A 7.059 7.059 0 0 1 164.872 23.601 A 5.873 5.873 0 0 1 163.843 22.278 Q 162.988 20.773 162.893 19.095 Z M 93.258 15.58 L 93.258 16.562 L 80.117 16.562 Q 80.26 19.08 81.321 20.783 A 6.563 6.563 0 0 0 81.558 21.138 A 4.172 4.172 0 0 0 84.581 22.882 A 6.254 6.254 0 0 0 85.342 22.927 Q 87.147 22.927 88.255 21.913 A 4.93 4.93 0 0 0 89.325 20.477 Q 89.628 19.876 89.826 19.143 A 8.51 8.51 0 0 0 89.838 19.095 L 93.068 19.095 A 10.909 10.909 0 0 1 92.39 21.227 A 9.148 9.148 0 0 1 91.707 22.499 A 6.684 6.684 0 0 1 89.173 24.811 A 6.888 6.888 0 0 1 87.31 25.463 Q 86.503 25.627 85.577 25.647 A 12.06 12.06 0 0 1 85.31 25.65 A 10.15 10.15 0 0 1 82.728 25.341 A 6.906 6.906 0 0 1 78.961 22.911 Q 76.94 20.359 76.802 16.282 A 17.914 17.914 0 0 1 76.792 15.675 A 15.517 15.517 0 0 1 76.997 13.089 A 11.345 11.345 0 0 1 77.758 10.466 A 8.234 8.234 0 0 1 79.324 8.053 A 7.58 7.58 0 0 1 80.608 6.967 A 7.244 7.244 0 0 1 83.22 5.897 A 10.215 10.215 0 0 1 85.278 5.7 A 9.531 9.531 0 0 1 87.712 5.993 A 6.506 6.506 0 0 1 91.216 8.233 A 8.242 8.242 0 0 1 92.612 10.887 Q 92.996 12.066 93.152 13.499 A 19.274 19.274 0 0 1 93.258 15.58 Z M 26.41 31.508 L 22.99 31.508 L 22.99 6.175 L 26.03 6.175 L 26.03 8.645 L 26.79 8.645 A 4.28 4.28 0 0 1 27.581 7.469 Q 28.007 7.012 28.595 6.603 A 4.643 4.643 0 0 1 30.007 5.955 Q 30.633 5.78 31.377 5.725 A 9.565 9.565 0 0 1 32.078 5.7 A 8.118 8.118 0 0 1 34.122 5.946 A 6.328 6.328 0 0 1 36.227 6.919 A 7.127 7.127 0 0 1 38.259 9.188 A 9.287 9.287 0 0 1 38.839 10.387 Q 39.708 12.55 39.74 15.446 A 20.179 20.179 0 0 1 39.742 15.675 A 16.948 16.948 0 0 1 39.556 18.245 Q 39.34 19.657 38.87 20.855 A 10.516 10.516 0 0 1 38.839 20.932 A 8.875 8.875 0 0 1 37.799 22.845 A 7.038 7.038 0 0 1 36.243 24.415 A 6.389 6.389 0 0 1 33.335 25.568 A 8.414 8.414 0 0 1 32.142 25.65 A 8.029 8.029 0 0 1 30.847 25.552 Q 30.145 25.437 29.572 25.188 A 4.166 4.166 0 0 1 29.007 24.89 A 5.054 5.054 0 0 1 27.17 22.895 L 26.41 22.895 L 26.41 31.508 Z M 101.08 25.175 L 97.533 25.175 L 97.533 0.475 L 106.337 0.475 A 18.138 18.138 0 0 1 108.789 0.629 Q 111.588 1.012 113.14 2.349 A 5.424 5.424 0 0 1 113.224 2.423 A 6.429 6.429 0 0 1 115.346 6.692 A 8.994 8.994 0 0 1 115.393 7.632 A 7.937 7.937 0 0 1 115.062 9.979 A 6.261 6.261 0 0 1 113.224 12.841 A 6.521 6.521 0 0 1 111.091 14.084 Q 109.204 14.778 106.422 14.788 A 22.677 22.677 0 0 1 106.337 14.788 L 101.08 14.788 L 101.08 25.175 Z M 55.543 8.645 L 56.303 8.645 L 56.303 6.175 L 59.343 6.175 L 59.343 25.175 L 56.303 25.175 L 56.303 22.705 L 55.543 22.705 A 4.28 4.28 0 0 1 54.752 23.881 Q 54.327 24.339 53.738 24.748 A 4.643 4.643 0 0 1 52.326 25.395 Q 51.7 25.571 50.956 25.625 A 9.565 9.565 0 0 1 50.255 25.65 A 8.009 8.009 0 0 1 48.196 25.397 A 6.288 6.288 0 0 1 46.107 24.415 A 7.293 7.293 0 0 1 44.031 22.063 A 9.369 9.369 0 0 1 43.494 20.948 Q 42.592 18.715 42.592 15.675 A 17.245 17.245 0 0 1 42.764 13.17 Q 42.987 11.658 43.494 10.403 A 8.596 8.596 0 0 1 44.603 8.42 A 7.044 7.044 0 0 1 46.123 6.935 A 6.546 6.546 0 0 1 48.953 5.803 A 8.729 8.729 0 0 1 50.318 5.7 Q 51.931 5.7 53.055 6.206 A 4.224 4.224 0 0 1 53.754 6.603 A 6.368 6.368 0 0 1 54.668 7.375 Q 55.18 7.903 55.474 8.498 A 3.897 3.897 0 0 1 55.543 8.645 Z M 130.91 8.645 L 131.67 8.645 L 131.67 6.175 L 134.71 6.175 L 134.71 25.175 L 131.67 25.175 L 131.67 22.705 L 130.91 22.705 A 4.28 4.28 0 0 1 130.119 23.881 Q 129.693 24.339 129.105 24.748 A 4.643 4.643 0 0 1 127.693 25.395 Q 127.067 25.571 126.323 25.625 A 9.565 9.565 0 0 1 125.622 25.65 A 8.009 8.009 0 0 1 123.562 25.397 A 6.288 6.288 0 0 1 121.473 24.415 A 7.293 7.293 0 0 1 119.397 22.063 A 9.369 9.369 0 0 1 118.861 20.948 Q 117.958 18.715 117.958 15.675 A 17.245 17.245 0 0 1 118.131 13.17 Q 118.353 11.658 118.861 10.403 A 8.596 8.596 0 0 1 119.969 8.42 A 7.044 7.044 0 0 1 121.489 6.935 A 6.546 6.546 0 0 1 124.319 5.803 A 8.729 8.729 0 0 1 125.685 5.7 Q 127.297 5.7 128.421 6.206 A 4.224 4.224 0 0 1 129.121 6.603 A 6.368 6.368 0 0 1 130.035 7.375 Q 130.546 7.903 130.841 8.498 A 3.897 3.897 0 0 1 130.91 8.645 Z M 159.6 25.175 L 155.832 25.175 A 6.338 6.338 0 0 1 155.05 23.937 A 7.992 7.992 0 0 1 154.707 23.117 A 5.665 5.665 0 0 1 154.491 22.296 Q 154.319 21.403 154.287 20.114 A 24.53 24.53 0 0 1 154.28 19.507 L 154.28 8.835 L 151.683 8.835 L 151.683 6.175 L 154.343 6.175 L 154.343 1.425 L 157.637 1.425 L 157.637 6.175 L 160.867 6.175 L 160.867 8.835 L 157.7 8.835 L 157.7 18.968 Q 157.7 21.565 158.254 22.848 A 8.62 8.62 0 0 0 158.868 24.023 A 6.537 6.537 0 0 0 159.6 24.985 L 159.6 25.175 Z M 68.273 25.175 L 64.853 25.175 L 64.853 6.175 L 67.893 6.175 L 67.893 9.405 L 68.653 9.405 Q 68.843 8.613 69.318 7.822 A 3.044 3.044 0 0 1 70.021 7.026 Q 70.34 6.767 70.752 6.552 A 5.394 5.394 0 0 1 70.838 6.508 Q 71.862 5.996 73.705 5.985 A 13.619 13.619 0 0 1 73.783 5.985 L 74.417 5.985 L 74.417 9.215 L 73.467 9.215 Q 71.79 9.215 70.694 9.725 A 3.394 3.394 0 0 0 69.445 10.688 A 4.527 4.527 0 0 0 68.731 12.026 Q 68.302 13.253 68.275 15.049 A 16.255 16.255 0 0 0 68.273 15.295 L 68.273 25.175 Z M 143.64 25.175 L 140.22 25.175 L 140.22 6.175 L 143.26 6.175 L 143.26 9.405 L 144.02 9.405 Q 144.21 8.613 144.685 7.822 A 3.044 3.044 0 0 1 145.387 7.026 Q 145.707 6.767 146.119 6.552 A 5.394 5.394 0 0 1 146.205 6.508 Q 147.228 5.996 149.072 5.985 A 13.619 13.619 0 0 1 149.15 5.985 L 149.783 5.985 L 149.783 9.215 L 148.833 9.215 Q 147.156 9.215 146.06 9.725 A 3.394 3.394 0 0 0 144.812 10.688 A 4.527 4.527 0 0 0 144.098 12.026 Q 143.669 13.253 143.642 15.049 A 16.255 16.255 0 0 0 143.64 15.295 L 143.64 25.175 Z M 34.948 21.042 A 5.104 5.104 0 0 0 35.023 20.932 A 6.545 6.545 0 0 0 35.823 19.163 Q 36.068 18.333 36.175 17.333 A 15.585 15.585 0 0 0 36.258 15.675 A 15.032 15.032 0 0 0 36.138 13.706 Q 36.005 12.704 35.726 11.883 A 6.322 6.322 0 0 0 35.023 10.418 A 4.144 4.144 0 0 0 33.683 9.109 Q 32.873 8.629 31.826 8.561 A 5.428 5.428 0 0 0 31.477 8.55 A 4.594 4.594 0 0 0 29.496 8.967 Q 28.459 9.455 27.708 10.513 A 7.104 7.104 0 0 0 26.645 12.856 Q 26.315 14.12 26.315 15.675 Q 26.315 18.873 27.708 20.837 A 4.782 4.782 0 0 0 29.059 22.144 Q 30.038 22.759 31.306 22.798 A 5.621 5.621 0 0 0 31.477 22.8 Q 33.719 22.8 34.948 21.042 Z M 50.857 22.8 A 4.594 4.594 0 0 0 52.838 22.383 Q 53.874 21.895 54.625 20.837 A 7.104 7.104 0 0 0 55.689 18.494 Q 56.018 17.231 56.018 15.675 Q 56.018 12.477 54.625 10.513 A 4.782 4.782 0 0 0 53.275 9.206 Q 52.295 8.591 51.027 8.553 A 5.621 5.621 0 0 0 50.857 8.55 Q 48.614 8.55 47.385 10.308 A 5.104 5.104 0 0 0 47.31 10.418 A 6.545 6.545 0 0 0 46.51 12.187 Q 46.265 13.018 46.158 14.017 A 15.585 15.585 0 0 0 46.075 15.675 A 15.032 15.032 0 0 0 46.196 17.644 Q 46.328 18.646 46.607 19.468 A 6.322 6.322 0 0 0 47.31 20.932 A 4.144 4.144 0 0 0 48.65 22.241 Q 49.46 22.722 50.507 22.789 A 5.428 5.428 0 0 0 50.857 22.8 Z M 126.223 22.8 A 4.594 4.594 0 0 0 128.204 22.383 Q 129.241 21.895 129.992 20.837 A 7.104 7.104 0 0 0 131.055 18.494 Q 131.385 17.231 131.385 15.675 Q 131.385 12.477 129.992 10.513 A 4.782 4.782 0 0 0 128.641 9.206 Q 127.662 8.591 126.394 8.553 A 5.621 5.621 0 0 0 126.223 8.55 Q 123.981 8.55 122.752 10.308 A 5.104 5.104 0 0 0 122.677 10.418 A 6.545 6.545 0 0 0 121.877 12.187 Q 121.632 13.018 121.525 14.017 A 15.585 15.585 0 0 0 121.442 15.675 A 15.032 15.032 0 0 0 121.562 17.644 Q 121.695 18.646 121.974 19.468 A 6.322 6.322 0 0 0 122.677 20.932 A 4.144 4.144 0 0 0 124.017 22.241 Q 124.827 22.722 125.874 22.789 A 5.428 5.428 0 0 0 126.223 22.8 Z M 101.08 3.325 L 101.08 11.938 L 106.178 11.938 A 13.498 13.498 0 0 0 107.642 11.865 Q 109.185 11.696 110.112 11.14 A 3.297 3.297 0 0 0 110.469 10.893 A 3.295 3.295 0 0 0 111.581 9.192 Q 111.745 8.631 111.776 7.952 A 7.055 7.055 0 0 0 111.783 7.632 A 5.905 5.905 0 0 0 111.661 6.39 Q 111.498 5.632 111.117 5.069 A 3.13 3.13 0 0 0 110.469 4.37 A 3.887 3.887 0 0 0 109.369 3.775 Q 108.132 3.325 106.178 3.325 L 101.08 3.325 Z M 80.148 14.092 L 89.933 14.092 A 10.309 10.309 0 0 0 89.756 12.46 Q 89.443 10.87 88.603 9.88 A 4.047 4.047 0 0 0 85.779 8.448 A 5.714 5.714 0 0 0 85.247 8.423 A 5.458 5.458 0 0 0 83.711 8.628 A 4.097 4.097 0 0 0 81.716 9.912 Q 80.643 11.157 80.268 13.243 A 11.867 11.867 0 0 0 80.148 14.092 Z" vector-effect="non-scaling-stroke"/></g></svg>